<svg xmlns="http://www.w3.org/2000/svg" xmlns:xlink="http://www.w3.org/1999/xlink" width="5.28in" height="2.14in" viewBox="0 0 380.15 154.39"><defs><linearGradient id="a" x1="179.99" y1="140.24" x2="179.99" y2="36.21" gradientUnits="userSpaceOnUse"><stop offset="0.05" stop-color="#0a346a"/><stop offset="0.95" stop-color="#00a2cc"/></linearGradient></defs><path d="M55.92,184.7V165.42h14v3.92H60.77V173h8.65v3.73H60.77v4h9.68v4Z" transform="translate(-7.93 -30.81)" fill="#fff"/><path d="M99.37,184.7,91,172.09h-.09L91,184.7H86.13V165.42h5.74L100.22,178h.09l-.12-12.58h4.88V184.7Z" transform="translate(-7.93 -30.81)" fill="#fff"/><path d="M130.63,169.4v15.3h-5V169.4h-5.88v-4h16.8v4Z" transform="translate(-7.93 -30.81)" fill="#fff"/><path d="M151.16,184.7V165.42h14v3.92H156V173h8.65v3.73H156v4h9.68v4Z" transform="translate(-7.93 -30.81)" fill="#fff"/><path d="M192.52,184.7,188,177.05h-1.71v7.65h-4.92V165.42h7.95a14.83,14.83,0,0,1,2.92.29,8,8,0,0,1,2.56,1,5,5,0,0,1,2.49,4.58,4.91,4.91,0,0,1-1.15,3.3,6.3,6.3,0,0,1-3.18,1.9l5.44,8.25Zm-.2-13.37a1.79,1.79,0,0,0-.32-1.1,2,2,0,0,0-.79-.65,3.71,3.71,0,0,0-1.1-.32,9.43,9.43,0,0,0-1.16-.08h-2.69v4.49h2.39a9.26,9.26,0,0,0,1.27-.09,4.64,4.64,0,0,0,1.18-.34,2.27,2.27,0,0,0,.88-.71A2,2,0,0,0,192.32,171.33Z" transform="translate(-7.93 -30.81)" fill="#fff"/><path d="M229,171.36a5.59,5.59,0,0,1-.67,2.85,5.26,5.26,0,0,1-1.83,1.86,8.42,8.42,0,0,1-2.64,1,15.14,15.14,0,0,1-3.12.32h-2.5v7.27h-5V165.42h7.65a15.4,15.4,0,0,1,3.19.32,7.78,7.78,0,0,1,2.59,1,5.06,5.06,0,0,1,1.73,1.83A5.64,5.64,0,0,1,229,171.36Zm-5,0a1.92,1.92,0,0,0-.29-1.12,2,2,0,0,0-.79-.68,4,4,0,0,0-1.14-.33,11,11,0,0,0-1.31-.08h-2.2v4.55h2.12a8.39,8.39,0,0,0,1.35-.11,3.77,3.77,0,0,0,1.16-.38,2.18,2.18,0,0,0,.81-.72A2,2,0,0,0,224,171.39Z" transform="translate(-7.93 -30.81)" fill="#fff"/><path d="M255.56,184.7,251,177.05h-1.71v7.65h-4.91V165.42h7.94a15,15,0,0,1,2.93.29,8.09,8.09,0,0,1,2.56,1,5.34,5.34,0,0,1,1.8,1.8,5.21,5.21,0,0,1,.68,2.78,4.86,4.86,0,0,1-1.15,3.3,6.27,6.27,0,0,1-3.17,1.9l5.44,8.25Zm-.21-13.37a1.79,1.79,0,0,0-.31-1.1,2,2,0,0,0-.8-.65,3.65,3.65,0,0,0-1.09-.32,9.72,9.72,0,0,0-1.17-.08h-2.69v4.49h2.4a9.37,9.37,0,0,0,1.27-.09,4.76,4.76,0,0,0,1.18-.34,2.31,2.31,0,0,0,.87-.71A2,2,0,0,0,255.35,171.33Z" transform="translate(-7.93 -30.81)" fill="#fff"/><path d="M276.26,184.7V165.42h5.06V184.7Z" transform="translate(-7.93 -30.81)" fill="#fff"/><path d="M309,170.43a4.56,4.56,0,0,0-1.69-1.21,5.1,5.1,0,0,0-2-.45,7,7,0,0,0-1,.08,2.85,2.85,0,0,0-.93.32,2.2,2.2,0,0,0-.69.6,1.52,1.52,0,0,0-.28.94,1.46,1.46,0,0,0,.22.81,1.92,1.92,0,0,0,.65.57,5.11,5.11,0,0,0,1,.45c.39.14.83.28,1.32.43.71.21,1.44.46,2.21.72a8.13,8.13,0,0,1,2.08,1.05,5.48,5.48,0,0,1,1.56,1.62,4.38,4.38,0,0,1,.62,2.41,5.93,5.93,0,0,1-.66,2.87,5.81,5.81,0,0,1-1.78,2,7.78,7.78,0,0,1-2.56,1.17,11.3,11.3,0,0,1-3,.38,13.14,13.14,0,0,1-4.32-.72,9.29,9.29,0,0,1-3.48-2.05l3.3-3.11a6.07,6.07,0,0,0,2,1.46,5.87,5.87,0,0,0,2.49.58,5.67,5.67,0,0,0,1.09-.1,2.81,2.81,0,0,0,.92-.36,1.81,1.81,0,0,0,.64-.65,2,2,0,0,0,.23-1,1.52,1.52,0,0,0-.29-.93,3,3,0,0,0-.84-.69,7.27,7.27,0,0,0-1.35-.58l-1.84-.55a19.07,19.07,0,0,1-2-.71,6.38,6.38,0,0,1-1.7-1.05,4.85,4.85,0,0,1-1.21-1.55,5,5,0,0,1-.46-2.22,5.14,5.14,0,0,1,.71-2.75,5.83,5.83,0,0,1,1.85-1.88,8.44,8.44,0,0,1,2.59-1.08,12.44,12.44,0,0,1,2.91-.34,11.62,11.62,0,0,1,3.61.6,9.51,9.51,0,0,1,3.22,1.77Z" transform="translate(-7.93 -30.81)" fill="#fff"/><path d="M327.71,184.7V165.42h14v3.92h-9.15V173h8.65v3.73h-8.65v4h9.68v4Z" transform="translate(-7.93 -30.81)" fill="#fff"/><path d="M318.57,96.1,315.44,100a24.05,24.05,0,0,1-7.82,6.51,20,20,0,0,1-9.37,2.23,19.07,19.07,0,0,1-8-1.65,20.63,20.63,0,0,1-10.8-11,19.63,19.63,0,0,1-1.56-7.84,19.41,19.41,0,0,1,1.56-7.72,21.89,21.89,0,0,1,4.35-6.64,19.4,19.4,0,0,1,6.44-4.42,20.52,20.52,0,0,1,8.18-1.62,22.53,22.53,0,0,1,13.05,4.31l3.18,2.18,28.3-24-4.47-3.85a64.21,64.21,0,0,0-18.83-11.32,59.24,59.24,0,0,0-21.37-3.94A58.48,58.48,0,0,0,256.83,48,59.09,59.09,0,0,0,243.1,69.15c-.45,1.2-.86,2.42-1.23,3.67L227.06,34H196.25L175.61,88.09V33.94H137.23V71.42H111.44V59.17c0-14.38-11.55-25.23-26.86-25.23H9.34l53.94,76.28,1.46,2.19h8.58v29.83h38.12V105.16h25.79v37.08h57.08l5.22-13.54h24.25L229,142.24h39.33l-2.51-6.58a60.23,60.23,0,0,0,9.54,5.11,58.46,58.46,0,0,0,22.89,4.51A59.32,59.32,0,0,0,324,139.53a61.69,61.69,0,0,0,20.8-16.17l3.35-4Z" transform="translate(-7.93 -30.81)" fill="#fff"/><path d="M67.44,107.36,55,89.71H73.34v17.66h-5.9Zm5.9-23.72h0V72.15A6.18,6.18,0,0,0,67.16,66h-29L50.66,83.64Zm246,19.51h0a28.93,28.93,0,0,1-9.45,7.85,25.12,25.12,0,0,1-11.68,2.79,24.28,24.28,0,0,1-10.1-2.09A25.77,25.77,0,0,1,274.78,98a25,25,0,0,1-2-9.81,24.67,24.67,0,0,1,2-9.68,26.54,26.54,0,0,1,5.35-8.16,24.32,24.32,0,0,1,8.08-5.57,25.42,25.42,0,0,1,10.18-2A27.65,27.65,0,0,1,314.29,68h0l20.87-17.72h0a59.08,59.08,0,0,0-17.34-10.44,54.19,54.19,0,0,0-19.57-3.6,53.44,53.44,0,0,0-37.88,15.37A53.82,53.82,0,0,0,247.81,71a42.7,42.7,0,0,0-2.07,7.35,54.07,54.07,0,0,0-1,9.92,51.8,51.8,0,0,0,.63,8,48.23,48.23,0,0,0,3.55,12,53.9,53.9,0,0,0,3.58,6.67,53,53,0,0,0,7.83,9.91c.66.65,1.38,1.24,2.07,1.86a53.76,53.76,0,0,0,14.88,9.4,53.2,53.2,0,0,0,20.93,4.12A54.09,54.09,0,0,0,321.8,135a56.42,56.42,0,0,0,19.1-14.87h0ZM170.57,39h-28.3V76.46H106.4V59.17C106.4,47.12,96.63,39,84.58,39H19.08L34.46,60.74H68.89a9.47,9.47,0,0,1,9.47,9.47v67h28V100.12h35.87V137.2h14.61l13.69-35.94Zm87.61,90.77L261,137.2H232.45l-5.21-13.54H196.07l-5.22,13.54H162.29l8.28-21.72,5.06-13.28L199.72,39h23.87l16.46,43.19a54.88,54.88,0,0,0-.33,6,54.18,54.18,0,0,0,4.61,22.11,58.83,58.83,0,0,0,12.48,18.13C257.26,128.9,257.72,129.32,258.18,129.75Zm-38.51-29-7.95-25.94h0l-8.09,25.94h16Z" transform="translate(-7.93 -30.81)" fill="url(#a)"/><rect width="380.15" height="153.9" fill="none"/></svg>